<svg xmlns="http://www.w3.org/2000/svg" xmlns:xlink="http://www.w3.org/1999/xlink" xmlns:serif="http://www.serif.com/" viewBox="0 0 32 40" version="1.1" xml:space="preserve" style="" x="0px" y="0px" fill-rule="evenodd" clip-rule="evenodd" stroke-linejoin="round" stroke-miterlimit="2"><g transform="matrix(1,0,0,1,-432,-48)"><g transform="matrix(1,0,0,0.85,0,9.55)"><path d="M459,55.824C460.657,55.824 462,57.404 462,59.353L462,74.647C462,76.596 460.657,78.176 459,78.176L437,78.176C435.343,78.176 434,76.596 434,74.647L434,59.353C434,57.404 435.343,55.824 437,55.824L459,55.824ZM448,59.353C444.413,59.353 441.5,62.779 441.5,67C441.5,71.221 444.413,74.647 448,74.647C451.587,74.647 454.5,71.221 454.5,67C454.5,62.779 451.587,59.353 448,59.353ZM448,61.706C450.484,61.706 452.5,64.078 452.5,67C452.5,69.922 450.484,72.294 448,72.294C445.516,72.294 443.5,69.922 443.5,67C443.5,64.078 445.516,61.706 448,61.706ZM440.723,54.647L441.569,52.16C442.024,50.82 443.127,49.941 444.354,49.941L451.646,49.941C452.873,49.941 453.976,50.82 454.431,52.16L455.277,54.647L440.723,54.647Z"/></g></g><text x="0" y="47" fill="#000000" font-size="5px" font-weight="bold" font-family="'Helvetica Neue', Helvetica, Arial-Unicode, Arial, Sans-serif">Created by Putri Afifah Octaviani</text><text x="0" y="52" fill="#000000" font-size="5px" font-weight="bold" font-family="'Helvetica Neue', Helvetica, Arial-Unicode, Arial, Sans-serif">from the Noun Project</text></svg>